# MagicaVoxel @ Ephtracy

# group
o 

# material
mtllib Tlie.mtl
usemtl palette

# normals
vn -1 0 0
vn 1 0 0
vn 0 0 1
vn 0 0 -1
vn 0 -1 0
vn 0 1 0

# texcoords
vt 0.306641 0.5
vt 0.537109 0.5
vt 0.888672 0.5
vt 0.892578 0.5

# verts
v -0.5 0 0.5
v -0.5 0 -0.5
v -0.5 0.5 0.4
v -0.5 0.5 0.3
v -0.5 0.5 0.1
v -0.5 0.5 0
v -0.5 0.5 -0.3
v -0.5 0.5 -0.4
v -0.5 0.6 0.5
v -0.5 0.6 0.4
v -0.5 0.6 0.3
v -0.5 0.6 0.2
v -0.5 0.6 -0.1
v -0.5 0.6 -0.2
v -0.5 0.6 -0.4
v -0.5 0.6 -0.5
v -0.5 0.7 0.2
v -0.5 0.7 0.1
v -0.5 0.7 0
v -0.5 0.7 -0.1
v -0.5 0.7 -0.2
v -0.5 0.7 -0.3
v -0.5 0.9 -0.3
v -0.5 0.9 -0.4
v -0.5 1 0.5
v -0.5 1 -0.3
v -0.5 1 -0.4
v -0.5 1 -0.5
v 0.5 0 0.5
v 0.5 0 -0.5
v 0.5 0.5 0.5
v 0.5 0.5 0.4
v 0.5 0.5 0.2
v 0.5 0.5 0.1
v 0.5 0.5 -0.1
v 0.5 0.5 -0.2
v 0.5 0.5 -0.4
v 0.5 0.5 -0.5
v 0.5 0.6 0.4
v 0.5 0.6 0.2
v 0.5 0.6 0.1
v 0.5 0.6 0
v 0.5 0.6 -0.3
v 0.5 0.6 -0.4
v 0.5 0.7 0
v 0.5 0.7 -0.1
v 0.5 0.7 -0.2
v 0.5 0.7 -0.3
v 0.5 0.9 0.4
v 0.5 0.9 0.3
v 0.5 1 0.5
v 0.5 1 0.4
v 0.5 1 0.3
v 0.5 1 -0.5
v -0.5 0 0.5
v -0.5 0.6 0.5
v -0.5 1 0.5
v -0.4 0.4 0.5
v -0.4 0.6 0.5
v -0.3 0.4 0.5
v -0.3 0.5 0.5
v -0.2 0.5 0.5
v -0.2 0.6 0.5
v -0.1 0.5 0.5
v -0.1 0.6 0.5
v -0.1 0.9 0.5
v -0.1 1 0.5
v 0.1 0.5 0.5
v 0.1 0.7 0.5
v 0.1 0.9 0.5
v 0.1 1 0.5
v 0.2 0.6 0.5
v 0.2 0.7 0.5
v 0.3 0.6 0.5
v 0.3 0.7 0.5
v 0.4 0.5 0.5
v 0.4 0.7 0.5
v 0.5 0 0.5
v 0.5 0.5 0.5
v 0.5 1 0.5
v -0.5 0 -0.5
v -0.5 0.6 -0.5
v -0.5 1 -0.5
v -0.4 0.4 -0.5
v -0.4 0.6 -0.5
v -0.3 0.4 -0.5
v -0.3 0.6 -0.5
v -0.2 0.5 -0.5
v -0.2 0.6 -0.5
v -0.1 0.5 -0.5
v -0.1 0.6 -0.5
v 0 0.5 -0.5
v 0 0.6 -0.5
v 0.1 0.4 -0.5
v 0.1 0.5 -0.5
v 0.1 0.6 -0.5
v 0.2 0.4 -0.5
v 0.2 0.5 -0.5
v 0.2 0.6 -0.5
v 0.2 0.7 -0.5
v 0.3 0.6 -0.5
v 0.3 0.7 -0.5
v 0.4 0.5 -0.5
v 0.4 0.6 -0.5
v 0.5 0 -0.5
v 0.5 0.5 -0.5
v 0.5 1 -0.5
v -0.5 0 0.5
v 0.5 0 0.5
v -0.5 0 -0.5
v 0.5 0 -0.5
v -0.5 1 0.5
v -0.1 1 0.5
v 0.1 1 0.5
v 0.5 1 0.5
v -0.1 1 0.4
v 0.1 1 0.4
v 0.4 1 0.4
v 0.5 1 0.4
v -0.4 1 0.3
v -0.2 1 0.3
v 0.4 1 0.3
v 0.5 1 0.3
v -0.4 1 0.2
v -0.2 1 0.2
v 0.1 1 -0.1
v 0.3 1 -0.1
v 0.1 1 -0.2
v 0.3 1 -0.2
v -0.5 1 -0.3
v -0.3 1 -0.3
v -0.5 1 -0.4
v -0.3 1 -0.4
v -0.5 1 -0.5
v 0.5 1 -0.5

# faces
f 3/2/1 2/2/1 1/2/1
f 4/2/1 2/2/1 3/2/1
f 5/2/1 2/2/1 4/2/1
f 6/2/1 2/2/1 5/2/1
f 7/2/1 2/2/1 6/2/1
f 8/2/1 2/2/1 7/2/1
f 9/2/1 3/2/1 1/2/1
f 10/3/1 4/3/1 3/3/1
f 10/2/1 3/2/1 9/2/1
f 11/2/1 5/2/1 4/2/1
f 11/3/1 4/3/1 10/3/1
f 12/2/1 5/2/1 11/2/1
f 13/2/1 7/2/1 6/2/1
f 14/2/1 7/2/1 13/2/1
f 15/2/1 2/2/1 8/2/1
f 15/3/1 8/3/1 7/3/1
f 16/2/1 2/2/1 15/2/1
f 17/3/1 10/3/1 9/3/1
f 17/2/1 5/2/1 12/2/1
f 17/3/1 11/3/1 10/3/1
f 17/3/1 12/3/1 11/3/1
f 18/3/1 6/3/1 5/3/1
f 18/2/1 5/2/1 17/2/1
f 19/2/1 13/2/1 6/2/1
f 19/3/1 6/3/1 18/3/1
f 20/3/1 14/3/1 13/3/1
f 20/2/1 13/2/1 19/2/1
f 21/2/1 7/2/1 14/2/1
f 21/3/1 14/3/1 20/3/1
f 22/3/1 16/3/1 15/3/1
f 22/2/1 7/2/1 21/2/1
f 22/3/1 15/3/1 7/3/1
f 23/3/1 20/3/1 19/3/1
f 23/3/1 16/3/1 22/3/1
f 23/3/1 22/3/1 21/3/1
f 23/3/1 18/3/1 17/3/1
f 23/3/1 19/3/1 18/3/1
f 23/3/1 21/3/1 20/3/1
f 24/3/1 16/3/1 23/3/1
f 25/3/1 17/3/1 9/3/1
f 25/3/1 23/3/1 17/3/1
f 26/4/1 24/4/1 23/4/1
f 26/3/1 23/3/1 25/3/1
f 27/3/1 16/3/1 24/3/1
f 27/4/1 24/4/1 26/4/1
f 28/3/1 16/3/1 27/3/1
f 29/2/2 30/2/2 31/2/2
f 31/2/2 30/2/2 32/2/2
f 32/2/2 30/2/2 33/2/2
f 33/2/2 30/2/2 34/2/2
f 34/2/2 30/2/2 35/2/2
f 35/2/2 30/2/2 36/2/2
f 36/2/2 30/2/2 37/2/2
f 37/2/2 30/2/2 38/2/2
f 31/3/2 32/3/2 39/3/2
f 32/2/2 33/2/2 39/2/2
f 33/3/2 34/3/2 40/3/2
f 39/2/2 33/2/2 40/2/2
f 34/2/2 35/2/2 41/2/2
f 40/3/2 34/3/2 41/3/2
f 41/2/2 35/2/2 42/2/2
f 36/2/2 37/2/2 43/2/2
f 37/3/2 38/3/2 44/3/2
f 43/2/2 37/2/2 44/2/2
f 39/3/2 40/3/2 45/3/2
f 42/2/2 35/2/2 45/2/2
f 40/3/2 41/3/2 45/3/2
f 41/3/2 42/3/2 45/3/2
f 35/3/2 36/3/2 46/3/2
f 45/2/2 35/2/2 46/2/2
f 36/2/2 43/2/2 47/2/2
f 46/3/2 36/3/2 47/3/2
f 43/3/2 44/3/2 48/3/2
f 47/2/2 43/2/2 48/2/2
f 45/3/2 46/3/2 49/3/2
f 31/3/2 39/3/2 49/3/2
f 47/3/2 48/3/2 49/3/2
f 46/3/2 47/3/2 49/3/2
f 39/3/2 45/3/2 49/3/2
f 49/3/2 48/3/2 50/3/2
f 31/3/2 49/3/2 51/3/2
f 49/4/2 50/4/2 52/4/2
f 51/3/2 49/3/2 52/3/2
f 50/3/2 48/3/2 53/3/2
f 52/4/2 50/4/2 53/4/2
f 48/3/2 44/3/2 54/3/2
f 53/3/2 48/3/2 54/3/2
f 44/3/2 38/3/2 54/3/2
f 58/2/3 56/2/3 55/2/3
f 59/3/3 57/3/3 56/3/3
f 59/2/3 56/2/3 58/2/3
f 60/2/3 58/2/3 55/2/3
f 60/3/3 59/3/3 58/3/3
f 61/3/3 59/3/3 60/3/3
f 62/2/3 61/2/3 60/2/3
f 62/3/3 59/3/3 61/3/3
f 63/3/3 57/3/3 59/3/3
f 63/3/3 59/3/3 62/3/3
f 64/2/3 62/2/3 60/2/3
f 64/2/3 63/2/3 62/2/3
f 65/3/3 57/3/3 63/3/3
f 65/2/3 63/2/3 64/2/3
f 66/3/3 57/3/3 65/3/3
f 67/3/3 57/3/3 66/3/3
f 68/2/3 64/2/3 60/2/3
f 68/3/3 65/3/3 64/3/3
f 68/3/3 66/3/3 65/3/3
f 69/3/3 66/3/3 68/3/3
f 70/4/3 67/4/3 66/4/3
f 70/3/3 66/3/3 69/3/3
f 71/4/3 67/4/3 70/4/3
f 72/2/3 69/2/3 68/2/3
f 73/3/3 70/3/3 69/3/3
f 73/2/3 69/2/3 72/2/3
f 73/3/3 71/3/3 70/3/3
f 74/2/3 72/2/3 68/2/3
f 74/3/3 73/3/3 72/3/3
f 75/3/3 71/3/3 73/3/3
f 75/3/3 73/3/3 74/3/3
f 76/2/3 68/2/3 60/2/3
f 76/2/3 74/2/3 68/2/3
f 76/2/3 75/2/3 74/2/3
f 77/3/3 71/3/3 75/3/3
f 77/2/3 75/2/3 76/2/3
f 78/2/3 60/2/3 55/2/3
f 78/2/3 76/2/3 60/2/3
f 79/3/3 77/3/3 76/3/3
f 79/2/3 76/2/3 78/2/3
f 80/3/3 71/3/3 77/3/3
f 80/3/3 77/3/3 79/3/3
f 81/2/4 82/2/4 84/2/4
f 82/3/4 83/3/4 85/3/4
f 84/2/4 82/2/4 85/2/4
f 81/2/4 84/2/4 86/2/4
f 84/3/4 85/3/4 86/3/4
f 85/3/4 83/3/4 87/3/4
f 86/3/4 85/3/4 87/3/4
f 86/2/4 87/2/4 88/2/4
f 87/3/4 83/3/4 89/3/4
f 88/2/4 87/2/4 89/2/4
f 86/2/4 88/2/4 90/2/4
f 88/3/4 89/3/4 90/3/4
f 89/3/4 83/3/4 91/3/4
f 90/3/4 89/3/4 91/3/4
f 86/2/4 90/2/4 92/2/4
f 90/2/4 91/2/4 92/2/4
f 91/3/4 83/3/4 93/3/4
f 92/2/4 91/2/4 93/2/4
f 81/2/4 86/2/4 94/2/4
f 86/2/4 92/2/4 94/2/4
f 92/3/4 93/3/4 95/3/4
f 94/2/4 92/2/4 95/2/4
f 93/3/4 83/3/4 96/3/4
f 95/3/4 93/3/4 96/3/4
f 94/3/4 95/3/4 97/3/4
f 81/2/4 94/2/4 97/2/4
f 95/2/4 96/2/4 98/2/4
f 97/3/4 95/3/4 98/3/4
f 96/3/4 83/3/4 99/3/4
f 98/2/4 96/2/4 99/2/4
f 99/3/4 83/3/4 100/3/4
f 97/2/4 98/2/4 101/2/4
f 98/2/4 99/2/4 101/2/4
f 99/2/4 100/2/4 101/2/4
f 100/3/4 83/3/4 102/3/4
f 101/2/4 100/2/4 102/2/4
f 97/2/4 101/2/4 103/2/4
f 101/3/4 102/3/4 104/3/4
f 103/2/4 101/2/4 104/2/4
f 81/2/4 97/2/4 105/2/4
f 97/2/4 103/2/4 105/2/4
f 103/3/4 104/3/4 106/3/4
f 105/2/4 103/2/4 106/2/4
f 102/3/4 83/3/4 107/3/4
f 106/3/4 104/3/4 107/3/4
f 104/3/4 102/3/4 107/3/4
f 110/2/5 109/2/5 108/2/5
f 111/2/5 109/2/5 110/2/5
f 112/3/6 113/3/6 116/3/6
f 113/4/6 114/4/6 116/4/6
f 114/3/6 115/3/6 117/3/6
f 116/4/6 114/4/6 117/4/6
f 117/3/6 115/3/6 118/3/6
f 118/3/6 115/3/6 119/3/6
f 112/3/6 116/3/6 120/3/6
f 116/3/6 117/3/6 120/3/6
f 117/3/6 118/3/6 120/3/6
f 120/3/6 118/3/6 121/3/6
f 118/4/6 119/4/6 122/4/6
f 121/3/6 118/3/6 122/3/6
f 122/4/6 119/4/6 123/4/6
f 120/4/6 121/4/6 124/4/6
f 112/3/6 120/3/6 124/3/6
f 122/3/6 123/3/6 125/3/6
f 124/4/6 121/4/6 125/4/6
f 121/3/6 122/3/6 125/3/6
f 124/3/6 125/3/6 126/3/6
f 125/3/6 123/3/6 126/3/6
f 126/3/6 123/3/6 127/3/6
f 124/3/6 126/3/6 128/3/6
f 126/4/6 127/4/6 128/4/6
f 127/3/6 123/3/6 129/3/6
f 128/4/6 127/4/6 129/4/6
f 112/3/6 124/3/6 130/3/6
f 124/3/6 128/3/6 130/3/6
f 128/3/6 129/3/6 130/3/6
f 130/3/6 129/3/6 131/3/6
f 130/4/6 131/4/6 132/4/6
f 131/3/6 129/3/6 133/3/6
f 132/4/6 131/4/6 133/4/6
f 132/3/6 133/3/6 134/3/6
f 129/3/6 123/3/6 135/3/6
f 134/3/6 133/3/6 135/3/6
f 133/3/6 129/3/6 135/3/6
